Patient4_TMGait_0pt7_02_right_29_EMG.mot
version=1
nRows=40
nColumns=33
inDegrees=no
endheader
time	1LAddLong	2LGlutMax	3LGlutMed	4LIliopsoas	5LSemiMemb	6LBicFemLong	7LRecFem	8LVastMed	9LVastLat	10LGasMed	11LTibAnt	12lTibPost	13LPeroneusLong	14LSol	15LExtDigLong	16LFlexDigLong	17RAddLong	18RGlutMax	19RGlutMed	20RIliopsoas	21RSemiMemb	22RBicFemLong	23RRecFem	24RVastMed	25RVastLat	26RGasMed	27RTibAnt	28RTibPost	29RPeroneusLong	30RSol	31RExtDigLong	32RFlexDigLong
32.932	-0.021667	-1.2465	0.28931	-0.028992	0.005646	-0.033264	0.2504	0.009155	-0.035248	0.013733	-0.004425	-0.006409	-0.084076	0.029144	0.31921	-0.019226	-0.005798	0.06897	-0.41763	-0.00412	0.18066	-0.056	0.81299	0.074615	-0.093384	0.023499	-0.10559	-0.034485	0.62546	0.17731	0.010986	-0.052948
32.933	-0.016022	-1.2526	0.31921	-0.037842	0.016785	-0.021515	0.25223	-0.007172	-0.036011	-0.021667	0.047607	-0.006409	-0.076294	0.004883	0.2388	-0.012207	0.070038	-0.16007	-0.77133	-0.030518	0.33035	0.2298	0.83771	0.004578	-0.071106	-0.010071	-0.016479	-0.029755	-0.071869	0.29755	0.007629	-0.045776
32.934	-0.016327	-1.1166	0.29953	-0.055084	0.018921	-0.03952	0.17319	-0.00473	-0.04776	-0.017395	-0.006714	-0.002289	-0.078888	-0.009613	0.13229	-0.016632	0.06134	-0.40527	-1.2712	-0.002136	0.28107	0.39948	0.88409	-0.030823	-0.043335	-0.048218	0.008545	-0.036621	-0.14923	0.35767	0.013275	-0.05127
32.935	-0.027008	-0.95337	0.29114	-0.031433	0.020447	-0.06073	0.03006	-0.00412	-0.046692	-0.009613	0.032349	0.009308	-0.067902	0.039673	0.23346	-0.020905	-0.033264	-0.54016	-1.0403	0.016632	0.12039	0.18616	0.87418	0.02121	-0.017548	-0.038605	0.061798	-0.11673	-0.17456	0.1268	0.004272	-0.052338
32.936	-0.013123	-0.74036	0.30395	-0.017242	0.018005	-0.054474	-0.055237	-0.006256	-0.039978	0.016479	0.063171	-0.005951	-0.063477	0.080719	0.050507	-0.023346	-0.15427	-0.56397	-0.87631	0.004272	0.18677	-0.025024	0.83328	0.13947	0.017548	-0.089111	0.052032	-0.42252	-0.19592	-0.383	0.006409	-0.053253
32.937	-0.023499	-0.51468	0.30151	0.019226	0.013885	-0.05249	-0.055084	-0.000305	-0.003052	0.018311	0.14755	-0.018158	-0.057831	0.094757	0.06134	-0.009918	-0.16602	-0.54398	-1.5862	-0.049896	-0.022888	0.38193	0.82245	0.18875	0.015717	-0.053558	0.095825	-0.20599	0.40787	-0.26428	0.004272	-0.053253
32.938	-0.022888	-0.34058	0.29785	0.052032	0.022583	-0.044708	0.086823	-0.001373	-0.005798	0.025024	0.2269	-0.014801	-0.02121	0.10193	0.009308	-0.022583	-0.14282	-0.58884	-2.0546	-0.13412	-0.0914	0.65109	0.67001	0.34866	0.075378	-0.026398	0.052795	0.45609	0.35233	0.061951	0.009308	-0.042877
32.939	-0.019073	-0.13931	0.271	0.010986	0.019989	-0.053253	0.11887	-0.005341	0.025024	0.022278	-0.08667	-0.020599	-0.001373	0.0737	-0.006104	-0.011444	-0.079193	-0.70267	-2.0146	-0.11383	-0.14587	0.54031	0.66681	0.33234	0.053864	-0.072327	0.045624	0.16632	0.1442	0.097198	0.004272	-0.04715
32.94	-0.019379	0.006104	0.27313	-0.016785	0.015869	-0.055847	0.02655	-0.011902	0.046692	0.029297	-0.18265	-0.014496	-0.040436	0.097504	0.011749	-0.020294	-0.048523	-0.74402	-1.736	-0.12085	-0.059662	0.47257	0.64712	0.23377	0.010071	0.091858	0.13443	0.21179	-0.38666	-0.05661	0.003357	-0.040894
32.941	-0.000763	0.14633	0.25101	-0.015869	0.014343	-0.078278	-0.11475	0.001831	0.055237	0.048981	-0.14725	-0.021973	-0.093689	0.076294	0.19241	-0.006256	-0.022278	-0.81222	-1.3675	-0.013428	0.075836	0.27969	0.60867	0.2417	-0.023651	0.15381	0.21271	0.12436	-0.59845	-0.27191	0.000305	-0.050354
32.942	0.005951	0.23483	0.21271	-0.007324	0.020599	-0.080719	-0.22415	0.005035	0.03418	0.045471	0.039368	-0.024567	-0.11169	0.071259	0.10651	-0.010986	-0.009155	-0.7576	-1.254	0.12634	0.15213	0.083008	0.4657	0.30899	-0.040436	0.13992	0.28534	-0.042877	-0.64163	-0.13519	0.004425	-0.046844
32.943	0.001526	0.29434	0.17944	0.020599	0.011749	-0.059814	-0.28	0.004883	0.024719	0.027313	0.10925	-0.015717	-0.024567	0.12421	0.12726	-0.01297	-0.013275	-0.62958	-0.9845	0.15717	0.038147	0.057983	0.22018	0.24521	-0.016174	0.12497	0.1442	-0.04776	0.40604	0.042114	0.001678	-0.030975
32.944	0.002289	0.32196	0.20844	0.054626	0.011139	-0.044861	-0.17456	0	0.025635	-0.014954	0.11185	-0.021515	0.079651	0.21301	0.73303	-0.017395	-0.02121	-0.54306	-1.0161	0.086975	-0.27832	0.19501	0.19516	0.19836	-0.016479	-0.013275	-0.020752	-0.034332	0.95703	-0.033112	-0.000153	-0.022125
32.945	0.014191	0.36926	0.20416	0.074463	0.005341	-0.033569	-0.063782	0.003204	0.037994	-0.00885	0.20523	-0.017548	0.06485	0.24155	0.58762	-0.015869	-0.029297	-0.57205	-1.0074	0.022888	-0.48462	0.28534	-0.003662	0.20981	-0.005493	0.009918	-0.10239	-0.024261	0.8046	-0.043335	0.002899	-0.023804
32.946	-0.000305	0.392	0.18982	0.021515	0.002899	-0.030823	-0.001831	0.015869	0.028229	-0.028839	0.34637	-0.019684	0.054474	0.28839	-0.67596	-0.032349	-0.005493	-0.42282	-0.98434	0.053864	-0.26642	0.19134	-0.083923	0.14084	-0.046844	0.067444	0.029144	-0.044403	-0.10223	-0.042877	-0.001678	-0.02121
32.947	0.00946	0.42954	0.19836	-0.041046	0.008087	-0.012665	0.084839	0.020294	0.010681	-0.02243	0.22934	-0.020294	-0.00473	0.25818	-0.62439	-0.041656	-0.007935	-0.32516	-0.49103	0.11902	0.015259	0.036316	-0.22064	-0.037231	-0.020294	0.046539	0.075989	0.0737	-0.19073	-0.10513	0.000305	-0.020752
32.948	0.018921	0.4454	0.17975	-0.048523	0.016785	-0.039825	0.15625	0.016632	-0.006714	0.033569	-0.13672	-0.016327	-0.079193	0.16937	-0.48721	-0.03418	0.001678	-0.23056	-0.32211	0.12497	0.25559	-0.19608	-0.20294	-0.16113	0.010223	-0.015106	0.06485	0.00946	0.50583	-0.20035	-0.004883	-0.018005
32.949	0.009155	0.47348	0.15457	0.004578	0.009613	-0.030365	0.23758	0.010986	-0.011902	0.048981	-0.20187	-0.010681	-0.049896	0.14832	0.029602	-0.032501	0.020142	-0.14771	-0.65536	0.081177	0.084076	-0.37201	-0.30136	-0.2475	-0.017853	-0.009613	0.13596	-0.059357	-0.074463	-0.085144	-0.003662	-0.033112
32.95	0.014038	0.51025	0.15152	-0.001678	0.009613	-0.028381	0.26642	0.007629	-0.019226	0.047455	-0.32013	-0.009613	-0.056152	0.10437	0.023499	-0.027161	0.030975	-0.019836	-0.5365	-0.006714	-0.13565	-0.43488	-0.18707	-0.13672	-0.072937	0.003052	0.095215	-0.054321	0.032806	0.14053	0.000916	-0.028534
32.951	-0.000916	0.56961	0.15533	-0.002441	0.023346	-0.031128	0.22598	-0.011292	-0.009613	0.037994	-0.21988	-0.014954	-0.011749	0.075836	0.19791	-0.013428	0.054932	0.099792	-0.028534	-0.14343	-0.18036	-0.46783	-0.038452	-0.1033	-0.14252	-0.001373	-0.028687	-0.042725	0.30746	0.10376	0.005341	-0.022736
32.952	0.01358	0.61005	0.12955	-0.008392	0.012512	-0.048676	0.22614	-0.007172	-0.012665	0.016937	-0.006256	-0.012054	-0.005188	0.040283	0.35584	-0.011597	0.065002	0.11337	0.11917	-0.24017	-0.2388	-0.29282	0.046234	-0.10803	-0.15442	-0.001984	-0.2713	-0.036316	1.1578	-0.043793	-0.002594	-0.011292
32.953	0.006409	0.57693	0.1091	-0.016785	0.037689	-0.045319	0.25345	0.005798	-0.010681	-0.001373	-0.092468	-0.014343	0.071411	-0.069122	-0.47501	-0.018311	0.032501	0.084534	-0.62485	-0.16785	0.28641	-0.08194	0.001984	-0.078125	-0.13138	0.000916	-0.24857	-0.03479	0.32638	-0.097198	-0.002899	-0.006866
32.954	0.003967	0.52795	0.061493	-0.011597	-0.001068	-0.041809	0.1268	0.018768	-0.014648	-0.011597	-0.17654	-0.016632	0.1149	-0.1355	-0.49896	-0.021667	0.011444	0.097504	-0.97107	-0.12329	0.33203	0.14481	-0.057068	-0.0383	0.04364	-0.005341	-0.048065	-0.03479	-0.87662	-0.12116	0.000153	-0.001678
32.955	-0.002136	0.41824	0.033112	-0.018768	0.006104	-0.029602	0.010681	0.016022	-0.010071	-0.007477	-0.06134	-0.016632	0.083618	-0.049744	-0.38605	0.005798	0.001373	0.023041	-0.9758	0.098419	0.22171	0.035553	-0.16327	-0.10422	0.33264	-0.010681	0.11414	-0.041656	0.72464	-0.14862	-0.008392	0.00061
32.956	-0.00351	0.31311	0.035095	-0.018768	0.000153	-0.050507	-0.061493	0.014801	-0.00351	0.033112	0.067902	-0.018311	0.00061	0.045624	-0.067596	-0.013733	0.01358	-0.079956	-1.1171	0.19959	0.21194	-0.51987	-0.29098	-0.033417	0.50064	-0.020905	0.2002	-0.032654	-0.19165	-0.008545	-0.003662	0.001678
32.957	-0.009613	0.23819	0.054321	0.028992	0.015564	-0.055847	-0.000916	0.011444	-0.006409	0.055695	0.11215	-0.02243	-0.049438	0.054169	0.062103	-0.009003	0.041962	-0.25925	-0.64255	0.14603	-0.096283	-0.95032	-0.13443	0.023499	0.33768	-0.030975	0.14313	0.057678	-0.036926	-0.32623	-0.014801	0.00351
32.958	-0.000916	0.21378	0.027161	0.042267	-0.001068	-0.081482	-0.016327	0.021057	-0.007935	0.039063	0.063324	-0.028076	-0.049591	0.10223	0.085754	-0.00412	0.038757	-0.30518	-0.82031	0.20172	-0.30762	-0.89798	-0.07019	0.047913	0.066223	-0.021362	0.33157	0.00351	-0.43045	-0.4602	0.000916	-0.003052
32.959	0.000916	0.21545	0.003357	0.006561	0.012512	-0.085297	-0.072021	0.018311	-0.016785	0.043335	-0.063019	-0.048523	-0.062256	0.069885	0.11169	0.001068	0.009155	-0.25452	-0.54642	0.13153	0.10178	-0.69794	-0.15793	0.14999	-0.11322	-0.00885	0.14603	-0.014648	-1.324	-0.28412	0.003662	0.006256
32.96	-0.001221	0.22583	-0.026703	0.010986	0.016632	-0.078735	-0.12711	0.009003	-0.027466	0.02121	-0.022888	-0.055237	-0.018005	0.059814	0.31952	0.015259	-0.014648	-0.20813	-0.66009	0.12268	0.44708	-0.74722	-0.13641	0.061798	-0.23361	-0.018158	-0.022278	-0.020752	-0.82932	-0.2179	-0.007019	0.013733
32.961	0.002899	0.26489	0.017853	0.004578	0.034943	-0.08316	-0.16174	0.009613	-0.038452	0.033264	0.039673	-0.050049	-0.012512	-0.000153	0.13748	0.007019	0.000763	-0.096893	-0.66193	0.052948	0.11948	-0.23346	0.014343	-0.010529	-0.37155	0.002136	-0.18173	-0.016632	-0.51468	-0.20783	-0.007172	0.007172
32.962	0.005951	0.31708	0.078735	0.018005	0.023346	-0.065765	-0.085449	0.007172	-0.036621	0.036774	0.1062	-0.040588	-0.015564	-0.00946	0.51193	0.016327	-0.027161	-0.063171	0.23895	-0.024414	-0.13596	0.51514	0.046692	0.11841	-0.29709	0.023804	-0.168	-0.015869	0.024567	0.14038	-0.005493	0.006409
32.963	0.003662	0.28244	0.06134	0.014648	0.026703	-0.077057	0.052643	0.007782	-0.046387	0.03891	0.11871	-0.02243	-0.018463	-0.05249	0.13641	0.013123	-0.050659	-0.29434	0.26733	0.016022	-0.069122	1.0037	-0.099792	0.15823	-0.091095	0.013733	-0.082397	-0.015564	0.54962	0.08667	-0.006866	0.005341
32.964	0.010529	0.22751	0.012817	0.005035	0.016327	-0.062561	0.15472	0.003204	-0.056305	0.046082	0.011902	-0.006866	-0.006561	-0.029602	0.25879	0.018158	-0.094452	-0.4982	-0.31158	0.042725	0.067444	1.096	-0.34744	0.11581	0.1294	0.006256	0.015717	-0.018616	0.04303	0.00412	-0.010223	0.003662
32.965	0.005188	0.20721	-0.003662	-0.023346	0.031433	-0.015106	0.14648	0.006866	-0.068665	0.036469	-0.16296	0.005798	0.10605	0.031433	-0.26184	0.028992	-0.090637	-0.49637	0.22461	0.022278	0.27435	0.69778	-0.17868	0.13016	0.28671	0.001984	0.19745	-0.017548	0.11353	-0.059662	-0.007019	0.006714
32.966	-0.005951	0.14923	-0.00061	-0.034332	0.011597	0.015869	0.13062	0.012054	-0.097809	0.02594	-0.12238	0.020294	0.12619	0.023346	-0.28366	0.013428	-0.074158	-0.43686	0.4805	-0.082245	0.20203	0.15945	-0.008545	0.098114	0.35965	0.003967	0.092468	-0.009918	0.20065	-0.026093	-0.007935	0.00946
32.967	0.00412	0.06485	-0.005493	-0.02243	0.012512	0.037537	0.19852	0.014954	-0.1091	0.058899	-0.036469	0.03006	0.055847	-0.007629	-0.10437	0.020294	-0.042267	-0.51727	0.12711	-0.035095	0.168	0.34271	0.20309	0.031738	0.26413	-0.006104	-0.1178	-0.010223	0.52933	-0.084686	-0.003052	0.012512
32.968	0.003815	0.014343	-0.06958	0.002441	0.007477	0.034027	0.3418	0.015411	-0.11231	0.056458	-0.079651	0.02121	0.009613	0.063324	0.25848	0.032501	-0.03067	-0.66711	-0.6456	-0.059052	0.20721	0.24063	0.052185	-0.024872	0.2211	-0.013123	-0.12665	-0.016174	0.62531	-0.079041	-0.002747	0.007782
32.969	0.009308	-0.077362	-0.10437	0.019226	0.010376	0.040741	0.50751	0.015411	-0.11536	0.058899	-0.11963	0.013275	-0.044861	0.037994	0.12268	0.023956	0.003815	-0.87952	-0.74432	-0.023346	0.13245	-0.55191	-0.011139	-0.044403	0.16251	-0.019684	-0.242	-0.012665	0.57938	-0.12741	-0.009003	0.013733
32.97	0.005035	-0.17136	-0.099487	-0.003052	0.014343	0.033264	0.61645	0.010223	-0.1181	0.053558	0.002747	0.028381	-0.020752	0.010071	0.2713	0.028229	0.024261	-1.0228	-0.57175	-0.027924	-0.014648	-1.207	0.003815	0.088806	-0.015564	-0.018921	-0.18707	-0.012207	-0.91919	-0.06897	-0.009308	0.015411
32.971	0.014496	-0.26001	-0.15747	-0.028229	0.009003	0.036469	0.60776	0.018768	-0.12512	0.059204	0.16907	0.032654	0.014954	0.032959	0.41168	0.025787	-0.002136	-0.91858	-0.55832	-0.09613	-0.13855	-0.92026	0.095978	0.064087	-0.4216	-0.031128	-0.16419	-0.011749	-0.66544	0.035706	-0.005493	0.005951
